<svg width="35" height="35" viewBox="0 0 35 35" fill="none" xmlns="http://www.w3.org/2000/svg">
    <path fill-rule="evenodd" clip-rule="evenodd" d="M5.04737 11.692H7.834C11.1147 11.692 14.3291 10.7779 17.1083 9.05437C19.8875 7.33086 23.1018 6.41669 26.3826 6.41669H29.7506C31.3611 6.41669 32.6667 7.70743 32.6667 9.29965V25.7197C32.6667 27.6234 31.1057 29.1667 29.1801 29.1667H5.81996C3.89437 29.1667 2.33337 27.6234 2.33337 25.7197V14.3752C2.33337 12.8933 3.54847 11.692 5.04737 11.692ZM21.2026 23.3413C21.9356 23.5482 22.6782 23.6516 23.4302 23.6516C24.8106 23.6516 25.8815 23.3659 26.6431 22.7944C27.4047 22.2131 27.7855 21.4101 27.7855 20.3854C27.7855 19.8533 27.676 19.3951 27.4571 19.0109C27.2381 18.6266 26.8668 18.2916 26.3433 18.0059C25.8197 17.7103 25.1009 17.459 24.187 17.2521C23.6254 17.1339 23.2017 17.0206 22.9162 16.9122C22.6306 16.7939 22.4354 16.6757 22.3307 16.5575C22.226 16.4392 22.1736 16.2865 22.1736 16.0993C22.1736 15.784 22.3212 15.5327 22.6163 15.3455C22.9114 15.1485 23.3017 15.0499 23.7872 15.0499C24.7963 15.0499 25.7578 15.3751 26.6717 16.0254L27.4713 14.1041C27.0905 13.7691 26.5574 13.4981 25.872 13.2912C25.1961 13.0744 24.4964 12.966 23.7729 12.966C22.9542 12.966 22.226 13.1138 21.5882 13.4094C20.9599 13.6952 20.4696 14.0942 20.1174 14.6066C19.7747 15.1091 19.6033 15.6805 19.6033 16.321C19.6033 16.8826 19.708 17.3556 19.9175 17.7398C20.1364 18.1241 20.5124 18.4591 21.0455 18.7448C21.5786 19.0306 22.3164 19.2769 23.2589 19.4838C24.0204 19.6513 24.5345 19.8188 24.8011 19.9863C25.0771 20.1538 25.2152 20.3706 25.2152 20.6366C25.2152 20.9322 25.0629 21.1638 24.7582 21.3313C24.4631 21.4889 24.03 21.5677 23.4588 21.5677C22.8971 21.5677 22.3402 21.484 21.7881 21.3165C21.2359 21.149 20.7171 20.9076 20.2316 20.5923L19.4177 22.5136C19.8746 22.8585 20.4696 23.1344 21.2026 23.3413Z" fill="#167BD8"/>
</svg>
